# xmcd CD database file
#
# Track frame offsets:
#	150
#	12173
#	24098
#	39614
#
# Disc length: 707 seconds
#
# Revision: 0
# Processed by: cddbd v1.5.2PL0 Copyright (c) Steve Scherf et al.
# Submitted via: CDex 1.51
#
DISCID=2002c104
DTITLE=Emma Garner - Diamond In The Rough
DYEAR=2007
DGENRE=Country
TTITLE0=Don't Tell Me The Truth
TTITLE1=These Arms
TTITLE2=It's So Nice
TTITLE3=It's True Love
EXTD=YEAR: 2007
EXTT0=
EXTT1=
EXTT2=
EXTT3=
PLAYORDER=
